<svg width="547" height="365" viewBox="0 0 547 365" fill="none" xmlns="http://www.w3.org/2000/svg">
<g clip-path="url(#clip0_222_132)">
<path d="M0 0H547V365H0V0Z" fill="#F6F6F6"/>
<path d="M258.431 195.396C263.098 195.675 269.547 195.557 274.301 195.564L303.548 195.506C309.728 195.493 315.684 195.31 321.849 195.857C345.168 197.927 348.683 225.516 326.662 233.852C332.791 235.616 338.026 238.003 342.276 243.034C350.342 252.585 348.242 265.786 338.868 273.595C329.1 280.879 318.908 280.308 307.42 280.308L289.576 280.297C289.865 265.148 289.622 249.338 289.632 234.14L289.64 216.369C289.64 212.229 290.166 205.956 288.47 202.293C285.602 196.099 271.363 196.468 266.791 199.393C260.751 203.256 257.068 214.96 254.326 221.631L242.385 250.755L234.384 270.081C233.436 272.362 230.809 278.321 230.313 280.308C228.856 280.334 227.352 280.316 225.891 280.318C218.903 263.391 211.821 246.502 204.644 229.654C201.201 221.494 197.845 213.108 194.188 205.051C193 202.436 190.428 199.058 187.616 198.106C186.684 197.791 185.118 197.813 183.67 197.338C183.069 196.583 183.257 196.639 183.247 195.523C189.877 195.634 196.858 195.512 203.517 195.503C205.712 202.178 210.587 212.807 213.447 219.582L232.045 263.71C233.462 260.663 234.986 256.861 236.113 253.701C243.059 234.223 251.727 214.885 258.431 195.396Z" fill="#1B4A14"/>
<path d="M301.614 237.664C316.173 237.801 333.44 237.726 333.702 257.699C333.777 263.257 332.847 267.083 328.959 271.272C325.297 274.498 322.017 275.662 317.1 275.833C299.694 276.431 301.569 274.676 301.595 258.944L301.614 237.664Z" fill="#F6F6F6"/>
<path d="M308.099 199.788C315.238 199.42 323.785 200.012 327.615 206.821C332.669 215.802 329.57 225.858 321.307 231.13C315.132 234.24 308.462 233.53 301.601 233.524L301.585 215.321C301.582 211.912 301.491 208.554 301.753 205.153C302.049 201.285 304.718 200.307 308.099 199.788Z" fill="#F6F6F6"/>
<path d="M210.525 94.6372C223.884 94.0949 237.153 97.0349 249.031 103.169C267.215 112.765 276.593 126.391 282.543 145.54C276.756 152.142 272.928 156.765 265.919 162.721C260.952 166.941 256.49 170.027 251.456 173.947C251.515 173.725 251.569 173.503 251.618 173.279C251.821 172.362 252.016 171.202 252.112 170.263C253.515 156.433 253.518 141.593 245.721 129.59C234.73 112.671 216.384 107.361 197.201 109.142C183.045 110.457 171.427 115.414 159.57 122.981C133.968 138.718 113.863 168.193 113.522 198.8C108.379 197.357 102.225 194.793 97.709 191.949C98.7079 189.992 99.3481 186.415 100.053 184.213C104.79 169.414 112.711 155.602 122.548 143.589C140.972 121.09 166.554 102.813 195.223 96.3517C200.062 95.2609 205.593 94.873 210.525 94.6372Z" fill="#1B4A14"/>
<path d="M412.293 195.475C414.556 195.525 428.084 195.256 428.97 195.857C429.085 196.542 429.021 196.547 428.717 197.155C427.047 197.72 425.261 197.84 423.543 198.084C418.263 198.802 413.359 203.434 409.777 207.226C404.481 212.834 399.222 218.69 393.926 224.321C391.893 226.48 389.438 229.001 387.692 231.35C390.023 234.501 393.894 238.91 396.455 242.031L413.656 263.078C416.911 267.158 421.537 273.243 426.201 275.932C427.728 276.816 431.016 277.587 432.915 278.45C433.166 279.411 433.196 279.04 432.939 279.961C431.537 280.604 415.4 280.292 412.689 280.284C411.449 278.572 408.92 275.707 407.483 273.945L395.176 258.94C390.034 252.687 384.877 246.139 379.543 240.047C377.139 237.3 375.2 237.566 371.76 237.521C371.373 250.915 371.557 266.825 371.738 280.303L359.313 280.327C359.586 275.761 359.426 269.836 359.423 265.198L359.41 238.952L359.439 218.368C359.455 209.179 361.68 198.185 350.024 197.588C349.276 197.55 348.05 197.386 347.484 196.918L347.415 195.528L371.968 195.496C371.314 206.984 371.68 221.866 371.712 233.536C374.559 233.521 378.752 233.613 380.884 231.499C386.03 226.385 390.854 220.448 395.608 214.949L406.27 202.613C408.111 200.485 410.664 197.694 412.293 195.475Z" fill="#1B4A14"/>
<path d="M113.761 203.739C114.192 204.289 114.508 208.834 114.859 210.222C119.487 228.505 131.476 240.556 150.372 244.081C148.412 246.26 146.495 248.929 144.522 251.203C139.639 256.776 133.934 261.572 127.605 265.427C125.456 266.763 122.806 268.185 120.578 269.456C119.105 267.964 116.606 266.032 114.922 264.436C104.037 254.121 98.4008 240.957 96.0707 226.346C95.4954 222.739 95.4123 218.604 95.2676 214.968C101.825 210.224 106.341 207.083 113.761 203.739Z" fill="#1B4A14"/>
<path d="M435.429 195.47C441.986 195.858 452.883 195.529 459.622 195.478C459.146 204.985 459.531 217.634 459.512 227.353C459.475 244.915 459.373 262.766 459.574 280.313C455.538 280.249 451.353 280.305 447.304 280.313C447.627 263.618 447.306 246.011 447.314 229.235L447.362 214.696C447.397 205.963 448.759 198.592 437.875 197.738C435.626 197.562 435.685 197.317 435.429 195.47Z" fill="#1B4A14"/>
<path d="M171.344 256.956C172.346 256.865 172.526 256.694 173.375 257.068C174.593 259.803 175.699 263.463 176.688 266.356L181.677 280.874C166.695 282.337 156.105 282.812 141.349 278.959C138.677 278.252 136.069 277.44 133.527 276.348C131.596 275.52 129.844 274.572 127.846 273.905C141.985 262.955 153.315 258.76 171.344 256.956Z" fill="#1B4A14"/>
</g>
<defs>
<clipPath id="clip0_222_132">
<rect width="547" height="365" fill="white"/>
</clipPath>
</defs>
</svg>
